<?xml version="1.0" encoding="UTF-8" standalone="no"?>
<svg
   width="2022.9246"
   height="1985.7496"
   viewBox="0 0 155.97234 153.10606"
   version="1.1"
   id="svg12"
   sodipodi:docname="1.svg"
   inkscape:version="1.4.2 (f4327f4, 2025-05-13)"
   inkscape:export-filename="2.svg"
   inkscape:export-xdpi="96"
   inkscape:export-ydpi="96"
   xmlns:inkscape="http://www.inkscape.org/namespaces/inkscape"
   xmlns:sodipodi="http://sodipodi.sourceforge.net/DTD/sodipodi-0.dtd"
   xmlns="http://www.w3.org/2000/svg"
   xmlns:svg="http://www.w3.org/2000/svg">
  <defs
     id="defs12">
    <clipPath
       clipPathUnits="userSpaceOnUse"
       id="clipPath13">
      <rect
         style="fill:#000000;stroke-width:0.0771024"
         id="rect13"
         width="155.97234"
         height="153.10606"
         x="19.824966"
         y="4.2993903" />
    </clipPath>
  </defs>
  <sodipodi:namedview
     id="namedview12"
     pagecolor="#ffffff"
     bordercolor="#000000"
     borderopacity="0.25"
     inkscape:showpageshadow="2"
     inkscape:pageopacity="0.0"
     inkscape:pagecheckerboard="true"
     inkscape:deskcolor="#d1d1d1"
     inkscape:zoom="0.3228"
     inkscape:cx="992.87485"
     inkscape:cy="1194.2379"
     inkscape:window-width="1920"
     inkscape:window-height="1009"
     inkscape:window-x="-8"
     inkscape:window-y="-8"
     inkscape:window-maximized="1"
     inkscape:current-layer="g12"
     inkscape:export-bgcolor="#ffffff00" />
  <g
     fill-rule="evenodd"
     clip-rule="evenodd"
     id="g12"
     transform="translate(-19.824966,-4.2993903)">
    <g
       id="g13"
       clip-path="url(#clipPath13)">
      <path
         d="m 86.241,66.294 -0.425,0.935 c -0.297,0.637 0,1.317 0.298,1.913 0.255,0.51 0.723,1.19 1.275,0.978 -0.51,-0.298 -0.468,-1.19 -0.042,-1.615 0.297,-0.297 0.765,-0.297 1.105,-0.51 h 4.888 c 0.595,0 0.893,-0.765 0.638,-1.275 l -1.573,-0.765 c 1.02,-0.298 1.998,-0.553 3.061,-0.638 0.978,-0.085 2.083,-0.213 2.889,0.425 0.68,0.51 0.723,1.445 0.852,2.253 0.467,2.635 0.211,5.397 1.104,7.948 0.213,0.68 0.596,1.36 0.383,2.041 h -8.712 c -0.212,0 -0.128,-0.255 -0.128,-0.426 0.851,-2.082 1.488,-4.208 1.998,-6.375 -0.638,-2.252 -3.74,-2.295 -6.036,-2.04 0.51,1.232 1.871,1.955 3.188,2.125 v 0.765 c -0.425,1.785 -0.935,3.698 -2.38,4.888 -0.978,0.808 -2.38,0.68 -3.443,0 L 77.318,69.568 C 74.47,66.891 70.688,65.53 66.905,64.68 H 34.26 c 0.638,1.403 1.998,2.253 3.4,2.891 l 16.576,1.487 -16.576,0.425 c 0.723,0.936 1.615,1.743 2.72,2.21 l 14.493,1.615 -13.261,0.425 c 0.85,1.36 2.253,2.252 3.783,2.763 l 14.068,1.275 -13.388,0.425 c 1.19,1.53 2.933,2.508 4.76,3.061 l 13.176,0.85 -12.453,0.34 c 1.36,1.36 3.103,2.295 4.93,2.848 l 11.263,1.063 -10.327,0.422 a 21.134,21.134 0 0 0 3.953,2.465 l 11.135,1.7 -7.65,0.212 3.783,2.295 8.246,1.402 0.51,0.34 -4.973,0.213 c 2.805,0.893 5.653,1.955 7.735,4.037 0.042,0.383 0,0.766 -0.085,1.148 l -8.628,8.5 c -0.255,0.255 0.127,0.596 0.212,0.85 0.255,0.681 0.808,1.148 1.275,1.701 1.572,1.827 3.485,3.314 5.525,4.59 0.383,0.255 0.723,-0.17 0.935,-0.553 l 3.655,-8.586 c 0.213,-0.552 0.595,-1.104 0.51,-1.699 -0.042,-0.426 -0.382,-0.808 -0.553,-1.19 -2.677,-6.248 -2.677,-13.303 -1.998,-20.061 l 1.232,-0.552 12.793,-2.763 h 1.403 l 14.025,3.188 -0.254,13.601 c -0.043,2.678 -1.402,5.101 -2.338,7.565 l 4.506,11.051 h 0.424 c 2.891,-1.828 5.482,-4.208 7.396,-7.056 l -9.225,-9.308 c 0.213,-0.426 0.596,-0.68 0.979,-0.978 l 6.672,-3.485 -5.609,-0.34 9.436,-1.572 c 1.529,-0.255 2.805,-1.317 3.953,-2.338 l -7.354,-0.425 10.072,-1.318 c 1.701,-0.935 3.359,-1.998 4.975,-3.103 l -10.031,-0.042 10.838,-1.062 c 1.955,-0.17 3.484,-1.615 4.889,-2.975 L 127.68,82.105 141.067,80.83 c 1.744,-0.17 2.934,-1.7 4.123,-2.976 L 132.227,77.642 146,76.367 c 1.656,-0.17 2.891,-1.615 3.783,-2.976 l -12.965,-0.297 12.582,-1.19 c 1.699,-0.17 3.188,-1.318 4.08,-2.763 l -16.363,-0.212 16.277,-1.573 c 1.531,-0.17 2.635,-1.573 3.4,-2.89 l -32.684,0.127 c -1.658,0 -3.188,0.808 -4.676,1.488 -1.062,0.467 -2.041,1.105 -3.018,1.7 -3.613,3.4 -6.631,7.735 -11.264,9.775 -0.467,0.213 -0.936,-0.042 -1.316,-0.34 -0.596,-0.467 -0.766,-1.189 -0.979,-1.912 l -1.529,-10.201 c -0.129,-0.893 0.723,-1.572 1.486,-1.997 l -8.075,-0.425 -2.678,1.36 c -0.51,0.254 -0.553,0.892 -0.723,1.402 l -3.782,0.085 c -0.55,10e-4 -0.975,0.341 -1.315,0.766 z"
         id="path2" />
      <path
         d="m 74.213,53.628 -0.85,4.335 C 67.795,55.626 61.887,53.84 55.852,54.265 l -6.758,1.275 c -1.87,0.34 -3.485,1.36 -5.143,2.252 -2.38,1.318 -4.59,2.933 -6.503,4.888 h 5.95 l 0.637,-0.553 c 3.953,-2.38 8.501,-3.825 13.091,-4.038 6.928,-0.297 13.728,2.465 19.296,6.588 0,-0.212 0.085,-0.425 0.127,-0.637 0.255,-1.105 0.085,-2.253 0.213,-3.4 0.637,-5.908 2.848,-11.561 5.186,-17.001 l 11.943,-22.102 1.53,-3.655 12.114,22.357 c 3.145,5.822 5.525,12.155 6.631,18.701 0.254,1.53 0.127,3.06 0.424,4.59 0.086,0.34 0.17,0.723 0.127,1.062 0.299,0.128 0.512,-0.127 0.723,-0.34 1.105,-1.147 2.551,-1.828 3.953,-2.55 5.186,-2.805 11.221,-4.25 17.086,-3.485 3.104,0.425 6.164,1.36 8.926,2.848 0.85,0.467 1.572,1.147 2.465,1.487 h 5.824 c -2.891,-2.975 -6.418,-5.355 -10.328,-6.801 -8.033,-2.975 -17.215,-1.827 -24.822,2.041 h -0.766 c -0.127,0 -0.041,-0.127 -0.084,-0.212 -0.723,-1.828 -0.893,-3.783 -1.445,-5.653 -0.723,-2.295 -1.658,-4.548 -2.551,-6.8 L 98.354,16.226 c -1.189,-2.295 -2.04,-4.718 -2.932,-7.141 l -0.51,2.04 -17.724,34.003 c -1.402,2.678 -2.253,5.567 -2.975,8.5 z m 56.443,59.929 -1.275,1.7 c -2.211,2.933 -6.418,4.123 -9.902,2.975 -0.68,-0.212 -1.275,-0.595 -1.914,-0.935 -0.594,-0.34 -1.104,-0.893 -1.785,-0.85 -1.146,0.085 -2.506,0.935 -2.336,2.125 a 12.98,12.98 0 0 0 5.143,3.061 c 4.377,1.317 9.393,0.084 12.707,-3.061 h 0.426 c 0.127,3.57 -1.148,7.098 -2.975,10.2 -1.914,3.23 -5.059,5.738 -8.672,6.886 -4.547,1.445 -9.775,0.043 -13.176,-3.273 -2.506,6.759 -5.695,13.474 -10.583,18.786 -0.425,0.171 -0.893,0 -1.275,-0.297 -2.083,-1.657 -3.272,-4.123 -4.675,-6.376 -2.337,-3.74 -4.25,-7.735 -5.61,-11.9 h -0.425 c -3.485,3.357 -8.841,4.633 -13.389,3.061 a 16.485,16.485 0 0 1 -7.353,-5.101 c -2.678,-3.315 -4.123,-7.65 -3.911,-11.9 h 0.425 c 1.487,1.615 3.443,2.763 5.568,3.315 4.377,1.146 9.308,-0.383 12.496,-3.613 -0.595,-0.85 -1.53,-1.445 -2.465,-1.912 h -0.51 c -2.167,1.615 -4.93,2.635 -7.565,2.125 -5.313,-1.062 -8.755,-6.674 -8.968,-12.071 a 23.462,23.462 0 0 0 -3.06,12.284 c 0.127,4.887 1.828,9.689 4.803,13.6 2.21,2.891 5.143,5.229 8.5,6.589 4.548,1.87 9.818,1.359 14.196,-0.766 2.89,6.843 7.14,13.134 12.666,18.148 0.68,-0.298 1.19,-0.85 1.699,-1.36 2.467,-2.465 4.549,-5.27 6.418,-8.16 l 4.633,-8.67 c 5.994,3.314 13.855,1.742 19.211,-2.508 8.373,-6.673 10.457,-20.019 5.016,-29.242 -0.128,2.507 -0.764,5.015 -2.083,7.14 z m -99.37,-33.662 0.34,3.4 c 0.552,5.695 3.527,10.923 7.225,15.301 3.528,4.165 8.033,7.65 13.261,9.309 -0.723,-2.934 -0.638,-6.035 0.382,-8.884 1.36,-3.825 4.633,-6.928 8.543,-7.99 -1.318,-0.723 -2.55,-1.615 -3.698,-2.55 -0.68,-0.085 -1.275,0.297 -1.87,0.637 -4.123,2.465 -6.63,7.013 -7.608,11.688 -0.425,0.085 -0.893,-0.085 -1.275,-0.297 -1.318,-0.681 -2.423,-1.743 -3.485,-2.763 -7.183,-6.758 -9.733,-17.852 -6.588,-27.202 l -2.338,-2.805 c -2.082,3.655 -3.017,7.948 -2.889,12.156 z m 123.214,-9.478 1.232,5.1 c 0.809,3.358 0.34,6.886 -0.553,10.201 -1.062,3.825 -3.102,7.31 -5.779,10.2 -1.572,1.7 -3.4,3.103 -5.143,4.591 -0.299,0.255 -0.682,0.595 -0.979,0.297 -0.34,-0.212 -0.297,-0.68 -0.297,-1.062 -0.086,-2.337 -1.488,-4.335 -2.764,-6.248 -1.529,-2.21 -3.611,-4.038 -5.949,-5.313 l -3.656,2.423 c 2.678,1.445 5.312,3.23 6.928,5.865 1.531,2.508 2.295,5.568 2.041,8.5 -0.086,0.808 -0.383,1.615 -0.34,2.423 0.68,0.128 1.316,-0.212 1.912,-0.51 9.988,-4.675 17.512,-14.664 18.488,-25.629 0.426,-4.675 -0.51,-9.393 -2.549,-13.601 h -0.426 c -0.637,1.02 -1.699,1.658 -2.166,2.763 z M 82.501,93.283 h 26.267 l 0.084,-7.991 -12.325,-2.762 h -1.275 c -3.74,0.68 -7.438,1.488 -11.093,2.465 -0.552,0.127 -1.105,0.255 -1.53,0.638 z"
         id="path3" />
      <path
         d="m 81.353,120.06 -0.34,0.723 a 4.803,4.803 0 0 1 -2.423,2.337 l -6.205,1.063 c -0.723,0.978 -0.468,2.465 0.34,3.399 0.255,0.298 0.595,0.553 0.978,0.426 l -0.212,-1.913 0.722,-0.297 h 10.625 c 0.468,0 0.553,0.638 0.51,1.062 0,0.297 -0.127,0.552 -0.085,0.85 0.425,0.255 0.808,-0.383 1.02,-0.85 0.425,-1.021 0.382,-2.338 -0.383,-3.103 l -3.272,-0.213 c -0.298,0 -0.212,-0.383 -0.212,-0.638 l 1.232,-1.913 2.89,0.766 c 0.978,-2.678 2.465,-5.143 3.357,-7.863 l -0.893,-0.637 c -1.827,-1.785 -3.357,-3.826 -4.505,-6.121 l -4.76,11.434 a 3.918,3.918 0 0 0 1.616,1.488 z m 20.188,-5.909 3.189,7.608 c 1.146,0.085 2.166,-0.936 3.271,-0.553 l 0.979,2.04 a 6.583,6.583 0 0 1 -3.443,0.851 c -0.936,0.51 -0.979,1.912 -0.426,2.848 0.256,0.425 0.682,0.935 1.191,0.765 l -0.213,-1.487 c -0.043,-0.425 0.51,-0.298 0.766,-0.425 h 10.838 c 0.51,0 0.297,0.722 0.297,1.147 0,0.297 0,0.637 -0.213,0.85 0.85,0.383 1.658,-0.935 1.701,-1.997 0.041,-0.851 -0.469,-1.615 -1.148,-2.126 l -4.25,-0.127 c -1.105,-0.043 -2.125,-0.723 -2.891,-1.487 -0.553,-0.553 -1.062,-1.19 -1.062,-1.998 l 1.402,-1.912 -4.674,-10.966 c -0.682,1.317 -1.445,2.635 -2.338,3.825 -0.849,1.147 -2.124,1.955 -2.976,3.144 z m -63.88,-29.496 4.335,3.273 -1.36,4.803 4.25,-2.805 3.953,2.805 h 0.51 l -1.36,-4.76 4.42,-3.4 h -5.823 l -1.615,-5.27 c -0.383,1.87 -0.68,3.867 -1.87,5.355 h -5.44 z m 101.368,0 3.104,2.125 c 0.34,0.212 0.68,0.468 0.934,0.765 l -1.146,4.973 4.293,-2.805 4.504,2.72 c -0.594,-1.572 -1.062,-3.229 -1.486,-4.888 l 4.037,-2.89 -5.398,-0.51 -1.742,-5.228 c -0.254,1.913 -0.51,3.953 -1.658,5.525 z m -5.951,87.47 0.936,-7.013 3.443,6.8 h 0.934 l 3.4,-6.97 0.979,6.418 c 0.043,0.255 0,0.51 0.084,0.765 h 2.338 l -1.486,-10.753 h -1.275 l -3.486,6.928 h -0.637 l -3.613,-6.928 h -1.189 a 50.137,50.137 0 0 0 -1.572,9.69 v 1.062 h 1.144 z m -43.564,-51.428 6.715,1.02 6.121,-1.062 -2.041,-5.186 -4.334,2.211 a 12.406,12.406 0 0 1 -4.675,-2.465 24.675,24.675 0 0 0 -2.125,5.143 z m -71.744,42.8 -0.552,0.765 c -1.063,1.488 -0.893,3.528 -0.213,5.186 0.68,1.615 2.168,2.891 3.868,3.315 h 3.103 c 1.104,0 1.955,-0.765 2.72,-1.487 2.295,-2.125 2.465,-6.248 0.213,-8.416 -2.467,-2.381 -6.972,-1.956 -9.139,0.637 z m 39.569,0.851 -0.425,1.062 c -0.723,1.785 0.042,3.825 1.147,5.312 1.998,2.678 6.588,2.763 9.011,0.425 2.295,-2.21 2.252,-6.63 -0.298,-8.5 -2.889,-2.168 -7.692,-1.488 -9.435,1.701 z m 42.929,-1.149 -1.021,1.7 c -1.572,2.636 0.426,6.206 3.188,7.438 1.701,0.765 3.74,0.51 5.355,-0.426 1.488,-0.85 2.508,-2.38 2.848,-4.037 0.383,-1.998 -0.254,-4.165 -1.869,-5.44 -2.466,-1.913 -6.419,-1.53 -8.501,0.765 z m 64.433,1.489 -0.426,1.487 c -0.254,0.893 0.086,1.785 0.383,2.635 0.977,2.848 4.463,4.251 7.438,3.613 0.553,-0.128 1.105,-0.255 1.445,-0.723 0.297,-0.425 0.426,-0.935 0.34,-1.445 -1.189,1.147 -3.018,1.53 -4.506,0.893 -3.229,-1.402 -3.102,-7.141 0.043,-8.713 1.062,-0.51 2.381,-0.425 3.273,0.34 0.34,0.298 0.723,0.808 1.105,0.511 l 0.084,-1.36 -2.762,-0.978 c -1.021,-0.34 -2.084,0.17 -3.061,0.553 -1.487,0.594 -2.719,1.741 -3.356,3.187 z m -117.35,-0.426 -0.468,1.7 c -0.425,1.573 -0.042,3.358 0.936,4.676 1.487,1.912 4.165,2.55 6.545,2.125 0.595,-0.085 1.275,-0.298 1.573,-0.851 0.212,-0.382 0.255,-0.807 0.425,-1.189 -0.638,-0.085 -1.147,0.468 -1.7,0.766 -1.147,0.595 -2.593,0.382 -3.613,-0.341 -3.018,-2.083 -1.955,-8.203 1.615,-8.798 a 3.316,3.316 0 0 1 2.508,0.638 c 0.34,0.255 0.637,0.765 1.105,0.638 l 0.085,-1.615 c -1.021,-0.383 -2.083,-0.808 -3.188,-0.851 -2.295,0.17 -4.76,1.063 -5.823,3.102 z m 75.315,7.863 1.189,-3.103 h 3.613 l 0.85,3.103 h 2.721 l -3.697,-10.753 h -1.914 c -1.445,3.357 -2.848,6.758 -4.121,10.2 l -0.213,0.553 c 0.51,0.213 1.062,0.213 1.572,0 z m 54.402,-3.103 h 3.613 l 0.979,3.103 h 2.592 l -3.656,-10.838 h -1.826 l -4.293,10.625 1.232,0.426 a 10.299,10.299 0 0 0 1.359,-3.316 z m -99.582,0.638 -0.17,0.425 c -0.467,1.147 -1.785,1.7 -2.975,1.487 -1.02,-0.17 -1.87,-0.978 -2.125,-1.997 -0.383,-2.593 -0.425,-5.186 -0.212,-7.778 l -2.465,0.213 0.212,7.565 c 0.085,2.72 3.825,3.952 6.333,2.975 1.615,-0.638 2.592,-2.337 2.805,-4.037 l 0.127,-6.801 h -1.7 c 0.467,2.636 1.062,5.44 0.17,7.948 z m -46.413,2.763 h 2.465 c 0.043,-0.255 0.043,-0.468 0.043,-0.723 -0.085,-1.36 -0.212,-2.72 0.042,-4.038 l 2.976,-5.95 h -1.275 c -0.595,1.573 -1.232,3.315 -2.635,4.25 -0.68,-1.444 -1.658,-2.72 -2.125,-4.25 H 27.8 l 3.06,5.738 c 0.297,0.51 0.17,1.147 0.212,1.7 0.086,1.105 0.086,2.167 0.001,3.273 z m 121.259,-0.298 h 2.424 l 0.127,-5.143 3.061,5.101 2.508,0.042 -2.934,-5.312 c 0.979,-0.17 1.785,-0.978 2.082,-1.913 a 2.472,2.472 0 0 0 -0.041,-1.827 c -0.383,-0.893 -1.361,-1.36 -2.254,-1.7 h -4.887 c 0.34,3.569 0.51,7.225 -0.086,10.752 z m -69.406,-9.266 v 9.266 h 2.465 v -9.266 l 2.763,-0.85 v -0.425 h -7.991 l -0.085,0.425 c 0.85,0.553 1.828,0.85 2.848,0.85 z m -70.554,9.904 1.87,-0.638 c 1.488,-0.51 2.083,-2.508 1.403,-3.953 l -1.573,-1.699 c 0.808,-0.723 1.827,-1.445 1.7,-2.551 -0.127,-1.147 -1.233,-1.912 -2.338,-2.21 H 8.886 l -0.382,10.796 c 1.275,0.255 2.592,0.467 3.868,0.255 z"
         id="path4" />
      <path
         d="m 88.579,165.197 0.298,0.85 c 1.147,1.062 2.38,1.998 3.697,2.891 0.468,0.68 0.425,1.742 -0.212,2.338 -1.021,0.978 -2.678,-0.043 -3.358,-1.275 h -0.212 l -0.213,1.912 c 1.275,0.936 3.018,1.19 4.42,0.426 1.02,-0.553 1.7,-1.615 1.913,-2.763 0.17,-0.978 -0.34,-1.913 -0.935,-2.678 l -3.188,-2.423 c -0.382,-0.297 -0.17,-0.808 0,-1.189 0.383,-0.766 1.36,-1.021 2.083,-0.638 0.51,0.297 0.723,0.978 1.275,1.189 l 0.595,-1.614 c -1.445,-0.851 -3.4,-1.063 -4.803,-0.086 -0.978,0.68 -1.573,1.913 -1.36,3.06 z m -48.496,-0.935 -0.085,0.851 c -0.043,0.425 0.297,0.723 0.51,1.062 0.468,0.723 1.147,1.19 1.828,1.7 0.723,0.51 1.785,0.808 2.04,1.7 0.212,0.808 -0.212,1.7 -0.978,1.997 -1.105,0.468 -2.55,-0.382 -2.635,-1.572 h -0.212 l -0.425,1.912 c -0.042,0.256 0.255,0.298 0.425,0.426 0.935,0.637 2.21,0.595 3.273,0.297 1.232,-0.34 2.21,-1.402 2.507,-2.635 0.255,-1.105 -0.17,-2.21 -0.893,-3.103 l -3.145,-2.423 c -0.425,-0.297 -0.085,-0.893 0.17,-1.275 0.383,-0.595 1.147,-0.765 1.785,-0.552 0.383,0.127 0.68,0.34 0.935,0.638 0.17,0.212 0.212,0.595 0.552,0.552 l 0.553,-1.487 c -1.317,-1.02 -3.315,-1.02 -4.718,-0.127 a 3.45,3.45 0 0 0 -1.487,2.039 z m 71.745,7.863 h 2.465 v -4.675 l 3.188,-0.553 v -0.851 l -3.188,-0.212 v -2.848 l 3.484,-0.638 v -0.765 h -5.822 v 8.5 c 0,0.683 -0.17,1.362 -0.127,2.042 z m 39.951,-0.978 -3.188,-0.085 -0.084,-3.953 3.059,-0.084 -0.254,-1.105 -2.934,-0.298 c 0,-1.021 -0.381,-2.082 0.129,-2.975 l 3.188,-0.425 v -0.851 h -5.738 v 10.753 h 5.738 z M 95.804,20.604 h -0.213 l -2.549,39.74 h 5.312 z m -8.458,88.405 0.553,0.511 c 0.255,0.212 0.552,0.51 0.893,0.424 V 95.068 h -2.338 c -0.213,4.293 -0.893,8.713 0.298,12.878 0.127,0.383 0.339,0.765 0.594,1.063 z"
         id="path6" />
      <path
         fill="#ffffff"
         d="m 125.768,163.455 1.232,4.292 h -2.762 z m 53.212,-0.213 1.234,4.463 -2.594,0.042 c 0,-0.17 0,-0.34 0.043,-0.51 z m -22.185,-0.255 0.426,0.935 c 0.34,0.808 -0.426,1.53 -0.85,2.253 h -1.658 l 0.17,-3.825 h 1.275 c 0.254,0.17 0.467,0.382 0.637,0.637 z m -50.152,-73.019 0.383,0.553 c 0.297,0.212 0.637,0.297 0.977,0.425 l -0.723,1.275 c -0.17,0.042 -0.383,-0.042 -0.553,-0.127 l -1.189,0.34 c 0.086,-0.254 0.127,-0.51 0.086,-0.765 l -0.383,-0.638 z m -4.25,0.128 v 0.297 l 1.062,0.553 c -0.299,0.212 -0.553,0.51 -0.639,0.85 l 0.086,0.467 h -1.828 l 0.086,-0.595 a 1.44,1.44 0 0 0 -0.469,-0.723 z m -16.917,0.084 1.19,0.765 c -0.297,0.212 -0.552,0.51 -0.637,0.85 l 0.085,0.467 -0.893,-0.255 -1.063,0.383 0.255,-0.808 c -0.17,-0.212 -0.383,-0.425 -0.51,-0.638 z m 2.678,0.765 0.467,-0.212 c 0.127,-0.042 0.255,-0.127 0.382,-0.212 l 0.638,-0.553 1.275,0.978 -0.638,0.85 c -0.085,0.17 0.085,0.34 0.085,0.51 h -1.785 c 0,-0.17 0.042,-0.34 0.042,-0.51 z m 17.086,-3.952 0.764,-0.297 c 0.17,-0.127 0.299,-0.255 0.426,-0.425 l 1.359,0.723 -0.51,0.765 v 0.723 h -1.699 c 0,-0.17 0.043,-0.34 0.043,-0.51 z m -10.073,3.952 -0.34,0.298 c -0.128,0.17 -0.255,0.34 -0.297,0.552 l 0.085,0.467 -0.893,-0.255 -1.063,0.383 0.255,-1.02 -0.51,-0.425 1.36,-0.85 z m 1.87,-0.212 0.34,-0.212 c 0.254,-0.17 0.51,-0.34 0.764,-0.553 l 0.213,0.553 c 0.256,0.17 0.553,0.297 0.852,0.425 l -0.426,0.638 c -0.127,0.212 -0.043,0.468 0.084,0.68 h -1.955 l 0.255,-0.892 a 1.308,1.308 0 0 1 -0.637,-0.425 c 0.17,-0.044 0.34,-0.129 0.51,-0.214 z m -5.823,-5.313 1.402,-0.85 0.425,0.51 0.935,0.34 -0.638,1.488 h -1.785 l 0.212,-0.765 A 1.339,1.339 0 0 1 91.214,85.42 Z m -5.823,0.723 1.147,0.765 c -0.255,0.212 -0.51,0.51 -0.638,0.85 l 0.128,0.51 h -1.7 v -0.51 l -0.553,-0.85 z m 12.623,-0.723 0.639,-0.212 c 0.297,-0.085 0.51,-0.34 0.637,-0.638 l 1.488,0.85 a 2.09,2.09 0 0 0 -0.553,0.936 c 0,0.127 0.043,0.297 0.127,0.425 H 98.44 c -0.043,-0.17 0.084,-0.34 0.127,-0.51 z M 95.167,84.442 95.55,84.23 c 0.212,-0.127 0.382,-0.255 0.552,-0.425 0.085,0.51 0.68,0.808 1.189,0.85 l -0.764,0.638 0.212,0.808 -1.147,-0.17 -0.552,0.213 c 0.085,-0.553 -0.085,-1.147 -0.51,-1.488 0.212,-0.044 0.424,-0.129 0.637,-0.214 z m 6.587,1.913 0.596,-0.213 c 0.34,-0.128 0.553,-0.425 0.766,-0.723 l 1.402,0.936 c -0.34,0.17 -0.596,0.467 -0.639,0.85 l 0.086,0.425 h -1.785 c 0,-0.17 0.043,-0.34 0.043,-0.51 z m -12.453,-0.935 1.062,0.723 -0.638,0.765 -0.042,0.51 -1.573,0.34 0.085,-0.638 A 2.515,2.515 0 0 0 87.6,86.142 Z"
         id="path7" />
      <path
         d="m 96.442,115.257 0.425,-0.51 V 95.195 h -2.125 l 0.085,20.188 c 0,0.341 0.383,0.341 0.638,0.383 0.382,0.044 0.679,-0.254 0.977,-0.509 z m -3.613,-1.276 0.085,-18.786 h -1.998 l -0.128,17.299 c 0,0.425 0.468,0.553 0.766,0.766 0.382,0.297 0.808,0.552 1.275,0.721 z m 7.013,-0.934 0.426,-0.34 c 0.34,-0.256 0.68,-0.511 0.721,-0.936 l -0.211,-16.576 h -1.914 l 0.129,18.148 c 0.296,0.044 0.593,-0.126 0.849,-0.296 z m 5.099,-5.951 -0.127,-11.9 h -1.998 v 15.131 c 0.809,-0.978 1.575,-2.083 2.125,-3.231 z"
         id="path10" />
      <path
         d="m 83.776,101.571 0.213,0.638 c 0.127,0.255 0.34,0.467 0.552,0.637 l -0.127,-7.65 h -1.785 c 0.169,2.167 0.509,4.292 1.147,6.375 z m 23.503,1.063 1.361,-5.738 c 0.041,-0.552 0.084,-1.147 0.127,-1.7 h -1.912 v 7.226 c 0,0.212 0.254,0.339 0.424,0.212 z"
         id="path12" />
    </g>
  </g>
</svg>
